<mxfile host="app.diagrams.net" modified="2024-06-26T15:20:27.817Z" agent="Mozilla/5.0 (Windows NT 10.0; Win64; x64; rv:127.0) Gecko/20100101 Firefox/127.0" version="24.5.5" etag="1r5NdNgZ8RftbNkIHuR0" type="github">
  <diagram name="Page-1" id="Du82o_gPGxJ8-dKaGwzK">
    <mxGraphModel>
      <root>
        <mxCell id="0" />
        <mxCell id="1" parent="0" />
      </root>
    </mxGraphModel>
  </diagram>
</mxfile>
